<mxfile host="Electron" agent="Mozilla/5.0 (Windows NT 10.0; Win64; x64) AppleWebKit/537.36 (KHTML, like Gecko) draw.io/28.0.6 Chrome/138.0.7204.100 Electron/37.2.3 Safari/537.36" version="28.0.6">
  <diagram name="Pagina-1" id="sX4XmxJmvRbWSTR-DfG0">
    <mxGraphModel dx="1869" dy="626" grid="1" gridSize="10" guides="1" tooltips="1" connect="1" arrows="1" fold="1" page="1" pageScale="1" pageWidth="827" pageHeight="1169" math="0" shadow="0">
      <root>
        <mxCell id="0" />
        <mxCell id="1" parent="0" />
        <mxCell id="Nvf8yY46JNlb3xqvv7Vy-1" value="&lt;font&gt;Data Flow Diagram&lt;/font&gt;" style="text;align=center;html=1;verticalAlign=middle;whiteSpace=wrap;rounded=0;fontStyle=1;fontSize=28;" parent="1" vertex="1">
          <mxGeometry x="-10" y="10" width="350" height="60" as="geometry" />
        </mxCell>
        <mxCell id="Nvf8yY46JNlb3xqvv7Vy-3" value="" style="rounded=0;whiteSpace=wrap;html=1;dashed=1;dashPattern=1 2;strokeColor=light-dark(#929090, #ededed);fillColor=none;" parent="1" vertex="1">
          <mxGeometry x="30" y="140" width="140" height="390" as="geometry" />
        </mxCell>
        <mxCell id="Nvf8yY46JNlb3xqvv7Vy-4" value="Sources" style="rounded=0;whiteSpace=wrap;html=1;fontSize=24;fillColor=default;strokeColor=none;" parent="1" vertex="1">
          <mxGeometry x="56.25" y="120" width="87.5" height="40" as="geometry" />
        </mxCell>
        <mxCell id="Nvf8yY46JNlb3xqvv7Vy-9" value="&lt;font style=&quot;font-size: 18px;&quot;&gt;Bronze Layer&lt;/font&gt;" style="rounded=1;whiteSpace=wrap;html=1;fontSize=19;fillColor=#ffe6cc;strokeColor=#d79b00;verticalAlign=middle;fontStyle=1" parent="1" vertex="1">
          <mxGeometry x="240" y="131" width="120" height="40" as="geometry" />
        </mxCell>
        <mxCell id="Nvf8yY46JNlb3xqvv7Vy-11" value="" style="rounded=1;whiteSpace=wrap;html=1;fontSize=19;fillColor=default;strokeColor=#d79b00;verticalAlign=middle;fontStyle=0;fillStyle=hatch;" parent="1" vertex="1">
          <mxGeometry x="220" y="181" width="160" height="349" as="geometry" />
        </mxCell>
        <mxCell id="bqR4b4jtY_377mMcrcns-17" style="edgeStyle=orthogonalEdgeStyle;rounded=0;orthogonalLoop=1;jettySize=auto;html=1;entryX=0;entryY=0.5;entryDx=0;entryDy=0;" parent="1" source="Nvf8yY46JNlb3xqvv7Vy-17" target="bqR4b4jtY_377mMcrcns-6" edge="1">
          <mxGeometry relative="1" as="geometry" />
        </mxCell>
        <mxCell id="bqR4b4jtY_377mMcrcns-19" style="edgeStyle=orthogonalEdgeStyle;rounded=0;orthogonalLoop=1;jettySize=auto;html=1;entryX=0;entryY=0.5;entryDx=0;entryDy=0;" parent="1" source="Nvf8yY46JNlb3xqvv7Vy-17" target="bqR4b4jtY_377mMcrcns-7" edge="1">
          <mxGeometry relative="1" as="geometry" />
        </mxCell>
        <mxCell id="bqR4b4jtY_377mMcrcns-20" style="edgeStyle=orthogonalEdgeStyle;rounded=0;orthogonalLoop=1;jettySize=auto;html=1;entryX=0;entryY=0.5;entryDx=0;entryDy=0;" parent="1" source="Nvf8yY46JNlb3xqvv7Vy-17" target="bqR4b4jtY_377mMcrcns-8" edge="1">
          <mxGeometry relative="1" as="geometry" />
        </mxCell>
        <mxCell id="Nvf8yY46JNlb3xqvv7Vy-17" value="&lt;b&gt;CRM&lt;/b&gt;" style="image;aspect=fixed;html=1;points=[];align=center;fontSize=12;image=img/lib/azure2/general/Folder_Blank.svg;" parent="1" vertex="1">
          <mxGeometry x="78.5" y="247.24" width="38" height="30.84" as="geometry" />
        </mxCell>
        <mxCell id="Nvf8yY46JNlb3xqvv7Vy-18" value="" style="image;aspect=fixed;html=1;points=[];align=center;fontSize=12;image=img/lib/azure2/general/File.svg;" parent="1" vertex="1">
          <mxGeometry x="103.61" y="264.24" width="17.89" height="22.04" as="geometry" />
        </mxCell>
        <mxCell id="bqR4b4jtY_377mMcrcns-22" style="edgeStyle=orthogonalEdgeStyle;rounded=0;orthogonalLoop=1;jettySize=auto;html=1;entryX=0;entryY=0.5;entryDx=0;entryDy=0;" parent="1" source="Nvf8yY46JNlb3xqvv7Vy-24" target="bqR4b4jtY_377mMcrcns-14" edge="1">
          <mxGeometry relative="1" as="geometry" />
        </mxCell>
        <mxCell id="bqR4b4jtY_377mMcrcns-24" style="edgeStyle=orthogonalEdgeStyle;rounded=0;orthogonalLoop=1;jettySize=auto;html=1;entryX=0;entryY=0.5;entryDx=0;entryDy=0;" parent="1" source="Nvf8yY46JNlb3xqvv7Vy-24" target="bqR4b4jtY_377mMcrcns-15" edge="1">
          <mxGeometry relative="1" as="geometry" />
        </mxCell>
        <mxCell id="bqR4b4jtY_377mMcrcns-25" style="edgeStyle=orthogonalEdgeStyle;rounded=0;orthogonalLoop=1;jettySize=auto;html=1;entryX=0;entryY=0.5;entryDx=0;entryDy=0;" parent="1" source="Nvf8yY46JNlb3xqvv7Vy-24" target="bqR4b4jtY_377mMcrcns-16" edge="1">
          <mxGeometry relative="1" as="geometry" />
        </mxCell>
        <mxCell id="Nvf8yY46JNlb3xqvv7Vy-24" value="&lt;b&gt;ERP&lt;/b&gt;" style="image;aspect=fixed;html=1;points=[];align=center;fontSize=12;image=img/lib/azure2/general/Folder_Blank.svg;" parent="1" vertex="1">
          <mxGeometry x="78.5" y="425.72" width="38" height="30.84" as="geometry" />
        </mxCell>
        <mxCell id="Nvf8yY46JNlb3xqvv7Vy-25" value="" style="image;aspect=fixed;html=1;points=[];align=center;fontSize=12;image=img/lib/azure2/general/File.svg;" parent="1" vertex="1">
          <mxGeometry x="103.61000000000001" y="442.72" width="17.89" height="22.04" as="geometry" />
        </mxCell>
        <mxCell id="bqR4b4jtY_377mMcrcns-3" value="Gold Layer" style="rounded=1;whiteSpace=wrap;html=1;fontSize=19;fillColor=#fff2cc;strokeColor=#d6b656;verticalAlign=middle;fontStyle=1" parent="1" vertex="1">
          <mxGeometry x="677" y="130" width="120" height="40" as="geometry" />
        </mxCell>
        <mxCell id="8tNHujkakFitqlW5sykG-17" style="edgeStyle=orthogonalEdgeStyle;rounded=0;orthogonalLoop=1;jettySize=auto;html=1;entryX=0;entryY=0.5;entryDx=0;entryDy=0;" parent="1" source="bqR4b4jtY_377mMcrcns-6" target="8tNHujkakFitqlW5sykG-11" edge="1">
          <mxGeometry relative="1" as="geometry" />
        </mxCell>
        <mxCell id="bqR4b4jtY_377mMcrcns-6" value="crm_sales_details" style="rounded=1;whiteSpace=wrap;html=1;fontSize=12;fillColor=#ffe6cc;strokeColor=#d79b00;verticalAlign=middle;fontStyle=0" parent="1" vertex="1">
          <mxGeometry x="240" y="201" width="120" height="30" as="geometry" />
        </mxCell>
        <mxCell id="8tNHujkakFitqlW5sykG-18" style="edgeStyle=orthogonalEdgeStyle;rounded=0;orthogonalLoop=1;jettySize=auto;html=1;" parent="1" source="bqR4b4jtY_377mMcrcns-7" target="8tNHujkakFitqlW5sykG-12" edge="1">
          <mxGeometry relative="1" as="geometry" />
        </mxCell>
        <mxCell id="bqR4b4jtY_377mMcrcns-7" value="crm_cust_info" style="rounded=1;whiteSpace=wrap;html=1;fontSize=12;fillColor=#ffe6cc;strokeColor=#d79b00;verticalAlign=middle;fontStyle=0" parent="1" vertex="1">
          <mxGeometry x="240" y="248.24" width="120" height="30" as="geometry" />
        </mxCell>
        <mxCell id="8tNHujkakFitqlW5sykG-19" style="edgeStyle=orthogonalEdgeStyle;rounded=0;orthogonalLoop=1;jettySize=auto;html=1;entryX=0;entryY=0.5;entryDx=0;entryDy=0;" parent="1" source="bqR4b4jtY_377mMcrcns-8" target="8tNHujkakFitqlW5sykG-13" edge="1">
          <mxGeometry relative="1" as="geometry" />
        </mxCell>
        <mxCell id="bqR4b4jtY_377mMcrcns-8" value="crm_prd_info" style="rounded=1;whiteSpace=wrap;html=1;fontSize=12;fillColor=#ffe6cc;strokeColor=#d79b00;verticalAlign=middle;fontStyle=0" parent="1" vertex="1">
          <mxGeometry x="240" y="296" width="120" height="30" as="geometry" />
        </mxCell>
        <mxCell id="8tNHujkakFitqlW5sykG-20" style="edgeStyle=orthogonalEdgeStyle;rounded=0;orthogonalLoop=1;jettySize=auto;html=1;" parent="1" source="bqR4b4jtY_377mMcrcns-14" target="8tNHujkakFitqlW5sykG-14" edge="1">
          <mxGeometry relative="1" as="geometry" />
        </mxCell>
        <mxCell id="bqR4b4jtY_377mMcrcns-14" value="erp_cust_az12" style="rounded=1;whiteSpace=wrap;html=1;fontSize=12;fillColor=#ffe6cc;strokeColor=#d79b00;verticalAlign=middle;fontStyle=0" parent="1" vertex="1">
          <mxGeometry x="240" y="379" width="120" height="30" as="geometry" />
        </mxCell>
        <mxCell id="8tNHujkakFitqlW5sykG-21" style="edgeStyle=orthogonalEdgeStyle;rounded=0;orthogonalLoop=1;jettySize=auto;html=1;entryX=0;entryY=0.5;entryDx=0;entryDy=0;" parent="1" source="bqR4b4jtY_377mMcrcns-15" target="8tNHujkakFitqlW5sykG-15" edge="1">
          <mxGeometry relative="1" as="geometry" />
        </mxCell>
        <mxCell id="bqR4b4jtY_377mMcrcns-15" value="erp_loc_a101" style="rounded=1;whiteSpace=wrap;html=1;fontSize=12;fillColor=#ffe6cc;strokeColor=#d79b00;verticalAlign=middle;fontStyle=0" parent="1" vertex="1">
          <mxGeometry x="240" y="426.24" width="120" height="30" as="geometry" />
        </mxCell>
        <mxCell id="8tNHujkakFitqlW5sykG-22" style="edgeStyle=orthogonalEdgeStyle;rounded=0;orthogonalLoop=1;jettySize=auto;html=1;entryX=0;entryY=0.5;entryDx=0;entryDy=0;" parent="1" source="bqR4b4jtY_377mMcrcns-16" target="8tNHujkakFitqlW5sykG-16" edge="1">
          <mxGeometry relative="1" as="geometry" />
        </mxCell>
        <mxCell id="bqR4b4jtY_377mMcrcns-16" value="erp_px_g1v2" style="rounded=1;whiteSpace=wrap;html=1;fontSize=12;fillColor=#ffe6cc;strokeColor=#d79b00;verticalAlign=middle;fontStyle=0" parent="1" vertex="1">
          <mxGeometry x="240" y="474" width="120" height="30" as="geometry" />
        </mxCell>
        <mxCell id="8tNHujkakFitqlW5sykG-9" value="&lt;font style=&quot;font-size: 18px;&quot;&gt;Silver Layer&lt;/font&gt;" style="rounded=1;whiteSpace=wrap;html=1;fontSize=19;fillColor=#f5f5f5;strokeColor=#666666;verticalAlign=middle;fontStyle=1;fontColor=#333333;" parent="1" vertex="1">
          <mxGeometry x="457" y="131" width="120" height="40" as="geometry" />
        </mxCell>
        <mxCell id="8tNHujkakFitqlW5sykG-10" value="" style="rounded=1;whiteSpace=wrap;html=1;fontSize=19;fillColor=#FFFFFF;strokeColor=#666666;verticalAlign=middle;fontStyle=0;fillStyle=hatch;fontColor=#333333;" parent="1" vertex="1">
          <mxGeometry x="439" y="181" width="160" height="349" as="geometry" />
        </mxCell>
        <mxCell id="8tNHujkakFitqlW5sykG-11" value="crm_sales_details" style="rounded=1;whiteSpace=wrap;html=1;fontSize=12;fillColor=#f5f5f5;strokeColor=#666666;verticalAlign=middle;fontStyle=0;fontColor=#333333;" parent="1" vertex="1">
          <mxGeometry x="457" y="201" width="120" height="30" as="geometry" />
        </mxCell>
        <mxCell id="8tNHujkakFitqlW5sykG-12" value="crm_cust_info" style="rounded=1;whiteSpace=wrap;html=1;fontSize=12;fillColor=#f5f5f5;strokeColor=#666666;verticalAlign=middle;fontStyle=0;fontColor=#333333;" parent="1" vertex="1">
          <mxGeometry x="457" y="248.24" width="120" height="30" as="geometry" />
        </mxCell>
        <mxCell id="8tNHujkakFitqlW5sykG-13" value="crm_prd_info" style="rounded=1;whiteSpace=wrap;html=1;fontSize=12;fillColor=#f5f5f5;strokeColor=#666666;verticalAlign=middle;fontStyle=0;fontColor=#333333;" parent="1" vertex="1">
          <mxGeometry x="457" y="296" width="120" height="30" as="geometry" />
        </mxCell>
        <mxCell id="8tNHujkakFitqlW5sykG-14" value="erp_cust_az12" style="rounded=1;whiteSpace=wrap;html=1;fontSize=12;fillColor=#f5f5f5;strokeColor=#666666;verticalAlign=middle;fontStyle=0;fontColor=#333333;" parent="1" vertex="1">
          <mxGeometry x="457" y="379" width="120" height="30" as="geometry" />
        </mxCell>
        <mxCell id="8tNHujkakFitqlW5sykG-15" value="erp_loc_a101" style="rounded=1;whiteSpace=wrap;html=1;fontSize=12;fillColor=#f5f5f5;strokeColor=#666666;verticalAlign=middle;fontStyle=0;fontColor=#333333;" parent="1" vertex="1">
          <mxGeometry x="457" y="426.24" width="120" height="30" as="geometry" />
        </mxCell>
        <mxCell id="8tNHujkakFitqlW5sykG-16" value="erp_px_g1v2" style="rounded=1;whiteSpace=wrap;html=1;fontSize=12;fillColor=#f5f5f5;strokeColor=#666666;verticalAlign=middle;fontStyle=0;fontColor=#333333;" parent="1" vertex="1">
          <mxGeometry x="457" y="474" width="120" height="30" as="geometry" />
        </mxCell>
        <mxCell id="PFwuyvtrkuc84izEKrPd-15" value="" style="rounded=1;whiteSpace=wrap;html=1;fontSize=19;fillColor=#FFFFFF;strokeColor=#d6b656;verticalAlign=middle;fontStyle=0;fillStyle=hatch;" vertex="1" parent="1">
          <mxGeometry x="657" y="181" width="160" height="349" as="geometry" />
        </mxCell>
        <mxCell id="PFwuyvtrkuc84izEKrPd-16" value="fact_sales" style="rounded=1;whiteSpace=wrap;html=1;fontSize=12;fillColor=#fff2cc;strokeColor=#d6b656;verticalAlign=middle;fontStyle=0;" vertex="1" parent="1">
          <mxGeometry x="677" y="218.24" width="120" height="30" as="geometry" />
        </mxCell>
        <mxCell id="PFwuyvtrkuc84izEKrPd-17" value="dim_customers" style="rounded=1;whiteSpace=wrap;html=1;fontSize=12;fillColor=#fff2cc;strokeColor=#d6b656;verticalAlign=middle;fontStyle=0;" vertex="1" parent="1">
          <mxGeometry x="677" y="310" width="120" height="30" as="geometry" />
        </mxCell>
        <mxCell id="PFwuyvtrkuc84izEKrPd-18" value="dim_products" style="rounded=1;whiteSpace=wrap;html=1;fontSize=12;fillColor=#fff2cc;strokeColor=#d6b656;verticalAlign=middle;fontStyle=0;" vertex="1" parent="1">
          <mxGeometry x="677" y="400" width="120" height="30" as="geometry" />
        </mxCell>
        <mxCell id="PFwuyvtrkuc84izEKrPd-22" value="" style="endArrow=classic;html=1;rounded=0;exitX=1;exitY=0.5;exitDx=0;exitDy=0;entryX=0;entryY=0.5;entryDx=0;entryDy=0;" edge="1" parent="1" source="8tNHujkakFitqlW5sykG-11" target="PFwuyvtrkuc84izEKrPd-16">
          <mxGeometry width="50" height="50" relative="1" as="geometry">
            <mxPoint x="609" y="90" as="sourcePoint" />
            <mxPoint x="659" y="40" as="targetPoint" />
          </mxGeometry>
        </mxCell>
        <mxCell id="PFwuyvtrkuc84izEKrPd-23" value="" style="endArrow=classic;html=1;rounded=0;exitX=1;exitY=0.5;exitDx=0;exitDy=0;entryX=0;entryY=0.5;entryDx=0;entryDy=0;jumpStyle=gap;" edge="1" parent="1" source="8tNHujkakFitqlW5sykG-12" target="PFwuyvtrkuc84izEKrPd-17">
          <mxGeometry width="50" height="50" relative="1" as="geometry">
            <mxPoint x="620" y="280" as="sourcePoint" />
            <mxPoint x="720" y="313" as="targetPoint" />
          </mxGeometry>
        </mxCell>
        <mxCell id="PFwuyvtrkuc84izEKrPd-24" value="" style="endArrow=classic;html=1;rounded=0;exitX=1;exitY=0.5;exitDx=0;exitDy=0;entryX=0;entryY=0.5;entryDx=0;entryDy=0;jumpStyle=gap;" edge="1" parent="1" source="8tNHujkakFitqlW5sykG-13" target="PFwuyvtrkuc84izEKrPd-18">
          <mxGeometry width="50" height="50" relative="1" as="geometry">
            <mxPoint x="620" y="260" as="sourcePoint" />
            <mxPoint x="720" y="293" as="targetPoint" />
          </mxGeometry>
        </mxCell>
        <mxCell id="PFwuyvtrkuc84izEKrPd-25" value="" style="endArrow=classic;html=1;rounded=0;exitX=1;exitY=0.5;exitDx=0;exitDy=0;entryX=0;entryY=0.5;entryDx=0;entryDy=0;jumpStyle=gap;" edge="1" parent="1" source="8tNHujkakFitqlW5sykG-15" target="PFwuyvtrkuc84izEKrPd-17">
          <mxGeometry width="50" height="50" relative="1" as="geometry">
            <mxPoint x="630" y="200" as="sourcePoint" />
            <mxPoint x="730" y="233" as="targetPoint" />
          </mxGeometry>
        </mxCell>
        <mxCell id="PFwuyvtrkuc84izEKrPd-26" value="" style="endArrow=classic;html=1;rounded=0;exitX=1;exitY=0.5;exitDx=0;exitDy=0;entryX=0;entryY=0.5;entryDx=0;entryDy=0;jumpStyle=gap;" edge="1" parent="1" source="8tNHujkakFitqlW5sykG-14" target="PFwuyvtrkuc84izEKrPd-17">
          <mxGeometry width="50" height="50" relative="1" as="geometry">
            <mxPoint x="630" y="220" as="sourcePoint" />
            <mxPoint x="730" y="253" as="targetPoint" />
          </mxGeometry>
        </mxCell>
        <mxCell id="PFwuyvtrkuc84izEKrPd-27" value="" style="endArrow=classic;html=1;rounded=0;exitX=1;exitY=0.5;exitDx=0;exitDy=0;entryX=0;entryY=0.5;entryDx=0;entryDy=0;jumpStyle=gap;" edge="1" parent="1" source="8tNHujkakFitqlW5sykG-16" target="PFwuyvtrkuc84izEKrPd-18">
          <mxGeometry width="50" height="50" relative="1" as="geometry">
            <mxPoint x="630" y="190" as="sourcePoint" />
            <mxPoint x="730" y="223" as="targetPoint" />
          </mxGeometry>
        </mxCell>
      </root>
    </mxGraphModel>
  </diagram>
</mxfile>
